<svg width="86" height="84" viewBox="0 0 86 84" fill="none" xmlns="http://www.w3.org/2000/svg">
<g id="Frame 24">
<g id="Frame 23">
<path id="Ellipse 1" d="M58.1177 70.9819C58.3674 71.3274 58.2788 71.8123 57.9168 72.0376C51.6939 75.911 44.2416 77.6034 36.8395 76.809C29.1742 75.9863 22.0786 72.5522 16.8589 67.1388C11.6392 61.7255 8.64682 54.6972 8.43252 47.3478C8.22511 40.2351 10.6333 33.2849 15.2269 27.6947C15.4839 27.3819 15.9433 27.3376 16.262 27.5871V27.5871C16.6027 27.8539 16.6506 28.3507 16.3771 28.686C12.0494 33.9918 9.78217 40.5728 9.97853 47.3069C10.1825 54.3011 13.0303 60.9896 17.9977 66.1413C22.9651 71.2931 29.7177 74.5612 37.0126 75.3441C44.0668 76.1012 51.1689 74.485 57.0961 70.7878C57.4356 70.5761 57.8832 70.6576 58.1177 70.9819V70.9819Z" fill="black"/>
<path id="Ellipse 2" d="M49.6293 57.2763C49.8603 57.6479 49.7321 58.1388 49.3382 58.3293C46.1675 59.8637 42.5321 60.3636 39.0114 59.736C35.2224 59.0606 31.8211 57.1248 29.4337 54.2849C27.0463 51.4451 25.8334 47.8923 26.0184 44.2806C26.1913 40.9041 27.5751 37.6886 29.9335 35.1495C30.2116 34.8502 30.677 34.8414 30.9811 35.1142V35.1142C31.3143 35.4131 31.3239 35.9301 31.0234 36.2619C28.9719 38.5267 27.7693 41.3698 27.6166 44.3526C27.4501 47.6031 28.5417 50.8006 30.6903 53.3564C32.839 55.9123 35.9001 57.6545 39.3102 58.2624C42.4806 58.8275 45.7542 58.3768 48.6089 56.9942C48.9726 56.8181 49.416 56.933 49.6293 57.2763V57.2763Z" fill="black"/>
<path id="Ellipse 3" d="M52.4362 64.2062C52.6853 64.5509 52.6084 65.0335 52.2553 65.2704C47.93 68.1719 42.7068 69.4493 37.5153 68.8592C32.0683 68.2401 27.0487 65.6096 23.4398 61.4831C19.8308 57.3565 17.8925 52.0312 18.0046 46.5503C18.1114 41.3265 20.0734 36.32 23.5252 32.4198C23.807 32.1014 24.2956 32.0895 24.604 32.3823V32.3823C24.9124 32.6751 24.9238 33.1617 24.6428 33.4808C21.4547 37.1021 19.6432 41.7416 19.5443 46.5818C19.4401 51.679 21.2427 56.6315 24.599 60.4692C27.9553 64.3069 32.6235 66.7533 37.6892 67.3291C42.4994 67.8759 47.3389 66.6986 51.3526 64.0215C51.7064 63.7855 52.1871 63.8616 52.4362 64.2062V64.2062Z" fill="black"/>
<circle id="Ellipse 4" cx="45" cy="44" r="5" fill="black"/>
</g>
<g id="Vector 1">
<path d="M33.9517 55.2849L25.3338 49.2538L18.7083 54.5229C18.7083 54.5229 17.3762 48.3388 19.7245 45.8818C22.0356 43.4637 28.161 44.3942 28.161 44.3942C28.161 44.3942 33.4303 34.6013 34.2798 33.877C38.5463 30.2393 47.4251 29.0206 47.4251 29.0206C47.4251 29.0206 49.2896 36.767 47.7682 40.9369C47.3621 42.05 37.9532 51.1295 37.9532 51.1295C37.9532 51.1295 40.761 54.138 41.0809 56.5664C41.555 60.1652 35.4878 63.9966 35.4878 63.9966L33.9517 55.2849Z" fill="white"/>
<path d="M30.2812 59.9547C29.7531 57.3691 26.6556 54.8495 24.0759 55.412C20.6371 56.1618 19.0777 69.5459 19.0777 69.5459C19.0777 69.5459 30.9424 63.1924 30.2812 59.9547Z" fill="white"/>
<path d="M25.3338 49.2538L33.9517 55.2849M25.3338 49.2538L18.7083 54.5229C18.7083 54.5229 17.3762 48.3388 19.7245 45.8818C22.0356 43.4637 28.161 44.3942 28.161 44.3942M25.3338 49.2538L28.161 44.3942M33.9517 55.2849L35.4878 63.9966C35.4878 63.9966 41.555 60.1652 41.0809 56.5664C40.761 54.138 37.9532 51.1295 37.9532 51.1295M33.9517 55.2849L37.9532 51.1295M28.161 44.3942C28.161 44.3942 33.4303 34.6013 34.2798 33.877C38.5464 30.2393 47.4251 29.0206 47.4251 29.0206C47.4251 29.0206 49.2896 36.767 47.7682 40.9369C47.3621 42.05 37.9532 51.1295 37.9532 51.1295M24.0759 55.412C26.6556 54.8495 29.7531 57.3691 30.2812 59.9547C30.9424 63.1924 19.0777 69.5459 19.0777 69.5459C19.0777 69.5459 20.6371 56.1618 24.0759 55.412Z" stroke="black" stroke-width="2"/>
</g>
</g>
</svg>
